# xmcd
#
# Track frame offsets:
#	150
#	11424
#	22787
#	38312
#	50918
#	63461
#	75071
#	87098
#	103887
#	117934
#	132655
#	146741
#	161883
#	174652
#	189754
#	205040
#	219423
#	238739
#	255408
#	268405
#
# Disc length: 3720 seconds
#
# Revision: 1
# Processed by: cddbd v1.5.2PL0 Copyright (c) Steve Scherf et al.
# Submitted via: audiograbber 1.83.01
#
DISCID=0f0e8614
DTITLE=Peter Horan - Keys To The Country
DYEAR=2012
DGENRE=Country
TTITLE0=Keys To The Country            (Peter Horan)
TTITLE1=My Piano And Me                 (Michael English)
TTITLE2=Slow Poke                            (Pee Wee King - ReddStewart - Chil
TTITLE2=ten Price) 
TTITLE3=Behind Closed Doors            (Kenny O'Dell)
TTITLE4=Its a Small World                   (Richard and Robert Sherman)
TTITLE5=Waltz Into Spring                  (Peter Horan)
TTITLE6=Flower on The Water            (John Williamson)
TTITLE7=Silver Bell                              (Percy Wenrich)
TTITLE8=Harbour Lights                      (Jimmy Kennedy - Hugh Williams)
TTITLE9=When We First Fell In Love  (Brian Letton)
TTITLE10=Wildwood Flower - Yellow Rose of Texas - Blue Moon of Kentucky
TTITLE11=I'm Counting on You   ( A Evelyn)   She Wears My Ring   (B&F Bryant)
TTITLE12=Mocking Bird Hill                   (Vaughn Horton)
TTITLE13=Maria Elena                          (Lorenzo Barcelata)
TTITLE14=The Last Waltz                     (Les Reed - Barry Mason)
TTITLE15=Baby Elephant Walk             (Henry Mancini)
TTITLE16=Lovin You                              (Raul Malo - Al Anderson)
TTITLE17=You Needed Me                    (Randy Goodrum)
TTITLE18=A Walk in The Black Forest   (Horst Jankowski)
TTITLE19=Till We Meet Again                (Richard Whiting)
EXTD=
EXTT0=
EXTT1=
EXTT2=
EXTT3=
EXTT4=
EXTT5=
EXTT6=
EXTT7=
EXTT8=
EXTT9=
EXTT10=
EXTT11=
EXTT12=
EXTT13=
EXTT14=
EXTT15=
EXTT16=
EXTT17=
EXTT18=
EXTT19=
PLAYORDER=
